<svg width="435" height="405" viewBox="0 0 435 405" fill="none" xmlns="http://www.w3.org/2000/svg">
    <path d="M107 12H435V66H107V12Z" fill="#9D70F9" />
    <path d="M216 120H435V175H216V120Z" fill="#9D70F9" />
    <path d="M216 339H435V393H216V339Z" fill="#9D70F9" />
    <path d="M326 230H435V284H326V230Z" fill="#9D70F9" />
    <path
        d="M115.875 187H175.125C177.744 187 180.256 185.973 182.108 184.144C183.96 182.316 185 179.836 185 177.25V118.75C185 116.164 183.96 113.684 182.108 111.856C180.256 110.027 177.744 109 175.125 109H115.875C113.256 109 110.744 110.027 108.892 111.856C107.04 113.684 106 116.164 106 118.75V177.25C106 179.836 107.04 182.316 108.892 184.144C110.744 185.973 113.256 187 115.875 187ZM125.75 128.5H165.25V167.5H125.75V128.5Z"
        fill="#9D70F9" />
    <path
        d="M115.875 405H175.125C177.744 405 180.256 403.973 182.108 402.144C183.96 400.316 185 397.836 185 395.25V336.75C185 334.164 183.96 331.684 182.108 329.856C180.256 328.027 177.744 327 175.125 327H115.875C113.256 327 110.744 328.027 108.892 329.856C107.04 331.684 106 334.164 106 336.75V395.25C106 397.836 107.04 400.316 108.892 402.144C110.744 403.973 113.256 405 115.875 405ZM125.75 346.5H165.25V385.5H125.75V346.5Z"
        fill="#9D70F9" />
    <path
        d="M9.75 78H68.25C70.8359 78 73.3158 76.9728 75.1443 75.1443C76.9728 73.3158 78 70.8359 78 68.25V9.75C78 7.16414 76.9728 4.68419 75.1443 2.85571C73.3158 1.02723 70.8359 0 68.25 0H9.75C7.16414 0 4.68419 1.02723 2.85571 2.85571C1.02723 4.68419 0 7.16414 0 9.75V68.25C0 70.8359 1.02723 73.3158 2.85571 75.1443C4.68419 76.9728 7.16414 78 9.75 78ZM19.5 19.5H58.5V58.5H19.5V19.5Z"
        fill="#9D70F9" />
    <path
        d="M239.532 285H239.42C238.192 284.991 236.977 284.741 235.846 284.264C234.716 283.788 233.691 283.093 232.831 282.222L214.622 263.413C212.903 261.647 211.96 259.275 212.001 256.818C212.042 254.361 213.064 252.022 214.841 250.313C216.618 248.605 219.005 247.668 221.477 247.709C222.701 247.729 223.909 247.989 225.032 248.473C226.155 248.957 227.171 249.657 228.023 250.531L239.69 262.57L270.713 232.111C271.561 231.163 272.595 230.398 273.753 229.863C274.91 229.328 276.166 229.036 277.442 229.003C278.717 228.97 279.987 229.199 281.17 229.674C282.354 230.148 283.426 230.86 284.322 231.764C285.217 232.668 285.916 233.745 286.376 234.928C286.835 236.111 287.045 237.376 286.992 238.643C286.939 239.91 286.625 241.153 286.069 242.295C285.513 243.437 284.727 244.453 283.76 245.28L246.055 282.324C244.318 284.031 241.975 284.992 239.532 285Z"
        fill="#FF5656" />
</svg>