<svg width="1183" height="1182" viewBox="0 0 1183 1182" fill="none"
    xmlns="http://www.w3.org/2000/svg">
    <path fill-rule="evenodd" clip-rule="evenodd"
        d="M1181.78 610.694C1183.14 599.775 1183.14 583.597 1181.78 572.887C1154.1 556.31 1120.01 548.705 1090 548.515C1088.82 533.911 1086.67 519.281 1084.15 504.658C1112.99 497.059 1144.17 480.69 1166.58 457.501C1165.02 446.778 1160.93 430.992 1156.84 421.053C1125.86 412.265 1090.96 413.65 1061.92 421.445C1057.04 407.998 1051.19 394.544 1045.16 381.091C1070.88 366.082 1096.79 342.31 1112.59 314.24C1108.3 304.105 1100.12 290.076 1093.69 281.484C1061.34 280.903 1028 291.436 1001.87 306.059C993.339 293.979 984.372 282.211 974.992 270.775C996.216 249.532 1014.94 219.906 1022.95 188.719C1016.12 179.937 1004.63 168.45 996.216 161.824C964.852 169.809 935.415 188.529 914.186 209.563C902.84 199.827 891.069 190.598 878.908 181.904C894.106 155.976 904.626 122.443 904.038 90.2888C895.27 83.4608 881.443 75.4759 871.302 71.3918C843.238 86.9823 819.637 112.701 804.831 138.432C790.966 131.816 776.78 125.893 762.327 120.686C770.343 92.0337 771.898 56.9456 762.921 25.9605C752.78 21.6867 737.202 17.5836 726.492 16.022C703.277 38.6302 687.105 69.6215 679.31 98.2737C664.49 95.5281 649.523 93.6388 634.486 92.6154C634.682 62.9896 627.076 28.698 610.518 1.01945C599.587 -0.339818 583.415 -0.339818 572.686 1.01945C556.122 28.698 548.529 62.7936 548.529 92.6154C533.324 93.5826 518.322 95.7448 503.509 98.2737C495.713 69.4319 479.345 38.2445 456.137 15.8323C445.427 17.3876 429.628 21.4781 419.689 25.5685C410.92 56.5725 412.279 91.4521 420.075 120.49C405.85 125.952 391.429 132.199 377.602 138.628C362.574 112.897 338.809 86.9823 310.739 71.1958C300.604 75.4759 286.575 83.6631 277.996 90.0928C277.415 122.443 287.928 155.78 302.937 181.904C291.842 190.281 280.525 198.853 269.796 208.008C248.566 186.759 218.941 168.064 187.747 160.067C178.978 166.876 167.472 178.382 160.859 186.759C168.831 218.155 187.551 247.585 208.604 268.827C199.253 280.511 189.707 292.801 180.919 305.275C155.188 290.272 121.674 279.74 89.3231 280.125C82.6911 288.907 74.7062 302.942 70.4071 312.874C86.1936 341.134 111.931 364.722 137.84 379.921C131.891 393.127 126.366 406.52 121.275 420.08C92.2376 412.461 57.1494 410.9 26.1644 419.884C21.8716 430.012 17.7875 445.602 16.2322 456.318C38.8277 479.521 69.8254 495.693 98.6736 503.292C96.524 517.713 94.5768 532.532 93.0216 547.339C63.0101 547.339 28.6933 554.938 1.03368 571.502C-0.344559 582.427 -0.344559 598.599 1.03368 609.328C28.6933 625.886 62.8078 633.491 92.8256 633.491C94.1848 648.494 96.5177 663.693 99.0656 678.512C70.2237 686.503 39.0427 702.865 16.6242 726.074C18.1795 736.777 22.2699 752.583 26.3667 762.527C57.3517 771.284 92.2439 769.924 121.484 762.135C126.738 775.831 132.588 789.291 139.015 802.477C113.303 817.284 87.3695 841.074 71.583 869.145C75.8758 879.273 84.063 893.308 90.499 901.881C122.843 902.463 156.18 891.955 182.095 877.123C190.68 889.395 200.037 901.3 209.584 912.812C188.341 933.84 169.634 963.466 161.649 994.666C168.452 1003.43 179.958 1014.94 188.341 1021.55C219.731 1013.58 249.161 994.836 270.391 974.005C281.95 983.681 293.923 992.853 306.275 1001.49C291.652 1027.4 281.119 1060.92 281.511 1093.28C290.28 1099.91 304.315 1107.91 314.267 1112.2C342.514 1096.41 366.115 1070.67 381.307 1044.57C394.389 1050.37 407.646 1055.76 421.061 1060.75C413.462 1089.39 411.906 1124.49 420.871 1155.46C431.012 1159.76 446.609 1163.85 457.319 1165.39C480.528 1142.79 496.7 1111.8 504.103 1083.15C518.53 1086.08 533.735 1088.03 549.319 1089.38C549.509 1119.01 557.115 1153.32 573.679 1180.98C584.603 1182.34 600.782 1182.34 611.511 1180.98C628.068 1153.32 635.661 1119.21 635.864 1089.2C650.285 1088.02 664.908 1085.66 678.943 1083.14C686.536 1111.99 702.911 1143.19 726.1 1165.58C736.816 1164.02 752.609 1159.95 762.541 1155.84C771.323 1124.86 769.964 1089.96 762.15 1060.73C776.191 1055.49 789.834 1049.41 803.294 1042.99C818.297 1068.72 842.068 1094.63 870.133 1110.43C880.28 1106.13 894.321 1097.94 902.894 1091.52C903.476 1059.18 892.943 1025.83 878.124 999.73C889.833 991.517 901.339 982.382 912.441 973.018C933.879 994.071 963.499 1012.77 994.68 1020.78C1003.47 1013.95 1014.96 1002.45 1021.59 994.071C1013.6 962.669 994.876 933.246 973.848 912.016C983.403 900.41 992.505 888.44 1001.13 876.131C1027.04 890.938 1060.58 901.47 1092.73 900.901C1099.56 892.12 1107.54 878.293 1111.62 868.14C1096.05 840.075 1070.32 816.487 1044.8 801.099C1050.79 787.976 1056.31 774.645 1061.35 761.13C1090.01 768.932 1125.08 770.487 1156.07 761.516C1160.35 751.388 1164.46 735.797 1166.01 725.087C1143.4 701.885 1112.41 685.706 1083.94 678.101C1086.49 664.059 1088.43 649.455 1089.82 635.034C1119.81 634.857 1154.1 627.264 1181.78 610.694ZM654.767 259.869C733.681 278.766 791.187 312.293 846.93 370.773C858.639 383.234 850.237 387.729 840.905 392.211L675.997 471.928C664.118 477.782 653.585 472.105 652.624 458.481L639.373 275.851C638.013 257.131 645.783 257.713 654.767 259.869ZM336.527 372.214C392.276 313.74 449.757 280.207 528.715 261.298C537.674 259.161 545.469 258.579 544.11 277.274L530.852 459.922C529.879 473.559 519.358 479.205 507.466 473.369L342.571 393.653C333.221 389.164 324.844 384.675 336.527 372.214ZM295.18 708.194C279.672 718.74 276.283 711.691 273.659 702.859C250.545 625.039 250.836 558.479 273.59 480.981C278.553 464.619 286.62 469.62 295.18 475.487L446.672 578.432C457.679 585.803 458.046 597.739 446.723 605.396L295.18 708.194ZM531.586 922.94C452.647 904.22 395.146 870.706 339.397 812.043C327.695 799.759 336.287 795.276 345.448 790.794L510.343 710.875C522.222 705.229 532.755 710.875 533.735 724.335L547.182 907.16C548.339 925.855 540.74 925.273 531.586 922.94ZM591.267 658.78C554.061 658.78 523.898 628.623 523.898 591.411C523.898 560.407 544.868 534.284 573.388 526.457L574.576 508.375H604.202L605.125 525.489C635.674 531.881 658.617 558.972 658.617 591.417C658.624 628.623 628.479 658.78 591.267 658.78ZM847.322 809.881C791.371 868.747 733.883 901.888 655.153 920.803C638.595 924.881 638.962 915.145 639.752 904.827L653.003 722.185C653.99 709.124 664.118 702.675 676.402 708.726L841.272 788.442C858.24 796.642 853.758 803.065 847.322 809.881L910.101 701.525C905.151 717.886 897.071 712.873 888.518 707.006L737.019 604.062C726.018 596.69 725.67 584.747 736.993 577.085L888.518 474.292C904.038 463.76 907.421 470.815 910.076 479.641C933.165 557.461 932.868 624.015 910.101 701.525L847.322 809.881Z"
        fill="#7950F2" />
    <path fill-rule="evenodd" clip-rule="evenodd"
        d="M1030.55 763.5C961.349 938.916 789.626 1063.46 591.027 1063.46C392.402 1063.46 221.286 939.497 152.279 764.088C148.587 754.529 153.063 747.714 160.485 745.172L230.636 721.009C234.544 719.845 244.286 719.649 248.383 729.974C302.95 866.223 437.638 961.524 591.027 961.524C744.416 961.524 876.777 868.158 933.481 732.11C938.741 719.649 948.287 719.852 952.201 721.009L1022.35 745.172C1029.76 747.72 1034.05 754.352 1030.55 763.5ZM940.897 273.714C1038.73 376.816 1088.61 535.269 1052.18 696.453C1050.21 704.457 1044.18 710.293 1034.83 707.568L964.655 686.894C958.036 685.339 952.58 678.328 953.149 669.755C978.305 538.967 946.15 432.932 869.538 347.968C861.749 342.486 860.971 331.195 868.375 323.204L919.249 272.335C922.758 266.481 933.86 265.318 940.897 273.714ZM817.108 297.871C754.74 249.335 675.624 221.075 591.027 221.075C506.429 221.075 427.301 249.531 365.52 297.871C355.765 305.666 348.571 306.829 341.534 299.236L292.625 245.232C287.163 238.999 286.967 230.438 297.102 222.238C377.792 158.125 480.325 118.744 591.033 118.744C701.741 118.744 803.288 158.125 885.154 222.042C895.674 230.438 895.674 238.999 890.205 245.232L841.284 299.236C834.26 306.836 827.047 305.476 817.108 297.871ZM242.724 274.485C145.066 377.391 95.3668 535.269 131.827 696.447C133.774 704.451 139.799 710.286 149.169 707.561L219.339 686.888C225.952 685.333 231.414 678.321 230.832 669.748C205.695 538.961 237.85 432.925 314.45 347.961C322.245 342.48 323.023 331.189 315.619 323.197L264.751 272.329C259.478 266.481 250.716 266.481 242.724 274.485Z"
        fill="white" />
    <path
        d="M591.027 478.914C652.833 478.914 703.322 529.371 703.322 591.196C703.322 653.021 652.833 703.516 591.027 703.516C529.202 703.516 478.72 653.027 478.72 591.196C478.72 529.371 529.202 478.914 591.027 478.914"
        stroke="white" stroke-width="23.8255" stroke-miterlimit="2.613" />
</svg>