<svg width="109" height="91" viewBox="0 0 109 91" fill="none" xmlns="http://www.w3.org/2000/svg">
<path d="M0.838304 0L108.748 0.241684L108.516 90.9262L0.611572 90.6845L0.838304 0Z" fill="#9D70F9"/>
<path d="M0.837505 0L108.747 0.20662L108.685 20.8809L0.775635 20.6743L0.837505 0Z" fill="black"/>
<circle cx="13.2646" cy="10.6057" r="3.7009" fill="white"/>
<circle cx="25.0664" cy="10.6057" r="3.7009" fill="white"/>
<circle cx="36.8681" cy="10.6057" r="3.7009" fill="white"/>
<path d="M62.7311 29.9816L9.56372 29.8555L9.51263 51.3895L62.68 51.5156L62.7311 29.9816Z" fill="white"/>
<path d="M99.9347 29.93L68.5344 29.8555L68.4833 51.3895L99.8836 51.464L99.9347 29.93Z" fill="white"/>
<path d="M73.975 57.547L35.4346 57.4556L35.3835 78.9896L73.9239 79.081L73.975 57.547Z" fill="white"/>
<path d="M30.1518 57.5386L9.56372 57.4897L9.51263 79.0237L30.1008 79.0726L30.1518 57.5386Z" fill="#FF5656"/>
<path d="M99.9858 57.5386L79.3977 57.4897L79.3466 79.0237L99.9347 79.0726L99.9858 57.5386Z" fill="white"/>
</svg>
