<svg width="188" height="175" viewBox="0 0 188 175" fill="none" xmlns="http://www.w3.org/2000/svg">
    <path d="M46.25 5H188V28.5714H46.25V5Z" fill="#6133BC" />
    <path d="M93.5 52.1426H188V75.714H93.5V52.1426Z" fill="#6133BC" />
    <path d="M93.5 146.428H188V169.999H93.5V146.428Z" fill="#6133BC" />
    <path d="M140.75 99.2852H188V122.857H140.75V99.2852Z" fill="#6133BC" />
    <path
        d="M50.25 81H75.75C76.8772 81 77.9582 80.5522 78.7552 79.7552C79.5522 78.9582 80 77.8772 80 76.75V51.25C80 50.1228 79.5522 49.0418 78.7552 48.2448C77.9582 47.4478 76.8772 47 75.75 47H50.25C49.1228 47 48.0418 47.4478 47.2448 48.2448C46.4478 49.0418 46 50.1228 46 51.25V76.75C46 77.8772 46.4478 78.9582 47.2448 79.7552C48.0418 80.5522 49.1228 81 50.25 81ZM54.5 55.5H71.5V72.5H54.5V55.5Z"
        fill="#6133BC" />
    <path
        d="M50.25 175H75.75C76.8772 175 77.9582 174.552 78.7552 173.755C79.5522 172.958 80 171.877 80 170.75V145.25C80 144.123 79.5522 143.042 78.7552 142.245C77.9582 141.448 76.8772 141 75.75 141H50.25C49.1228 141 48.0418 141.448 47.2448 142.245C46.4478 143.042 46 144.123 46 145.25V170.75C46 171.877 46.4478 172.958 47.2448 173.755C48.0418 174.552 49.1228 175 50.25 175ZM54.5 149.5H71.5V166.5H54.5V149.5Z"
        fill="#6133BC" />
    <path
        d="M4.25 34H29.75C30.8772 34 31.9582 33.5522 32.7552 32.7552C33.5522 31.9582 34 30.8772 34 29.75V4.25C34 3.12283 33.5522 2.04183 32.7552 1.2448C31.9582 0.447766 30.8772 0 29.75 0H4.25C3.12283 0 2.04183 0.447766 1.2448 1.2448C0.447766 2.04183 0 3.12283 0 4.25V29.75C0 30.8772 0.447766 31.9582 1.2448 32.7552C2.04183 33.5522 3.12283 34 4.25 34ZM8.5 8.5H25.5V25.5H8.5V8.5Z"
        fill="#6133BC" />
    <path
        d="M103.747 123H103.699C103.175 122.996 102.657 122.889 102.174 122.685C101.692 122.48 101.255 122.183 100.888 121.809L93.1186 113.748C92.3852 112.992 91.983 111.975 92.0005 110.922C92.0181 109.869 92.4539 108.866 93.2121 108.134C93.9703 107.402 94.9888 107.001 96.0436 107.018C96.5658 107.027 97.0812 107.138 97.5604 107.346C98.0396 107.553 98.4732 107.853 98.8363 108.228L103.814 113.387L117.051 100.333C117.413 99.9269 117.854 99.599 118.348 99.3699C118.842 99.1407 119.377 99.0153 119.922 99.0013C120.466 98.9873 121.008 99.0852 121.513 99.2887C122.018 99.4922 122.475 99.7971 122.857 100.184C123.239 100.572 123.538 101.033 123.734 101.541C123.93 102.048 124.019 102.59 123.997 103.133C123.974 103.676 123.84 104.209 123.603 104.698C123.366 105.187 123.03 105.623 122.618 105.977L106.53 121.853C105.789 122.585 104.789 122.997 103.747 123Z"
        fill="#FF5656" />
</svg>